<svg xmlns="http://www.w3.org/2000/svg" width="21" height="13" viewBox="0 0 21 13" fill="none">
  <path d="M8.43056 6.22464C8.43056 6.22464 10.3224 6.08089 10.3224 3.81716C10.3224 1.5553 9.03931 0.440313 7.07807 0.440313L0.359375 0.429688V12.9296H7.23432C7.23432 12.9296 10.6718 13.0383 10.6718 9.17962C10.6718 9.17962 10.9243 6.22464 8.43056 6.22464ZM2.85936 2.30467H6.29683C6.29683 2.30467 7.47307 2.32405 7.47307 3.84904C7.47307 5.42965 6.29683 5.42965 6.29683 5.42965H2.85936V2.30467ZM6.60933 11.0546H2.85936V7.30463H6.60933C6.60933 7.30463 8.48431 7.32401 8.48431 9.17962C8.48431 11.0352 6.87932 11.0546 6.60933 11.0546Z" fill="white"/>
  <path d="M15.9844 3.55494C11.2888 3.55494 11.2969 8.24241 11.2969 8.24241C11.2969 8.24241 10.9844 12.9299 15.9844 12.9299C15.9844 12.9299 20.3594 12.9299 20.3594 9.1799H17.8594C17.8594 9.1799 17.8594 11.0549 15.9844 11.0549C15.9844 11.0549 14.1094 11.0549 14.1094 8.55491C14.1094 8.55491 19.1094 8.55491 20.3594 8.55491C20.3594 7.30492 20.3594 3.55494 15.9844 3.55494ZM14.1094 7.30492C14.1094 7.30492 14.0682 5.42993 15.9844 5.42993C17.9 5.42993 17.8594 7.30492 17.8594 7.30492H14.1094Z" fill="white"/>
  <path d="M18.4846 1.67979H13.4846V2.92978H18.4846V1.67979Z" fill="white"/>
</svg>