<svg width="45" height="43" viewBox="0 0 45 43" fill="none" xmlns="http://www.w3.org/2000/svg">
<path d="M8.23698 0H36.6536C40.962 0 44.4453 3.48333 44.4453 7.79167V35.1083C44.4453 39.4167 40.962 42.9 36.6536 42.9H8.23698C3.92865 42.9 0.445312 39.4167 0.445312 35.1083V7.79167C0.445312 3.48333 3.92865 0 8.23698 0Z" fill="url(#paint0_linear_62_47)"/>
<path d="M10.3457 30.0849V11.2199C10.3457 11.0915 10.4007 11.0182 10.529 11.0182C10.8407 11.0182 11.134 11.0182 11.5557 10.9999C11.9957 10.9815 12.454 10.9815 12.949 10.9632C13.444 10.9449 13.9757 10.9449 14.544 10.9265C15.1124 10.9082 15.6624 10.9082 16.2124 10.9082C17.7157 10.9082 18.9624 11.0915 19.989 11.4765C20.9057 11.7882 21.749 12.3015 22.4457 12.9799C23.0324 13.5665 23.4907 14.2815 23.784 15.0699C24.059 15.8399 24.2057 16.6282 24.2057 17.4532C24.2057 19.0299 23.839 20.3315 23.1057 21.3582C22.3724 22.3849 21.3457 23.1549 20.154 23.5949C18.9074 24.0532 17.5324 24.2182 16.029 24.2182C15.589 24.2182 15.2957 24.2182 15.1124 24.1999C14.929 24.1815 14.6724 24.1815 14.324 24.1815V30.0665C14.3424 30.1949 14.2507 30.3049 14.1224 30.3232C14.104 30.3232 14.0857 30.3232 14.049 30.3232H10.5657C10.419 30.3232 10.3457 30.2499 10.3457 30.0849ZM14.3424 14.5565V20.7165C14.599 20.7349 14.8374 20.7532 15.0574 20.7532H16.029C16.744 20.7532 17.459 20.6432 18.1374 20.4232C18.724 20.2582 19.2374 19.9099 19.6407 19.4515C20.0257 18.9932 20.209 18.3699 20.209 17.5632C20.2274 16.9949 20.0807 16.4265 19.7874 15.9315C19.4757 15.4549 19.0357 15.0882 18.504 14.8865C17.8257 14.6115 17.0924 14.5015 16.3407 14.5199C15.864 14.5199 15.4424 14.5199 15.094 14.5382C14.7274 14.5199 14.4707 14.5382 14.3424 14.5565Z" fill="url(#paint1_linear_62_47)"/>
<path d="M35.6467 19.5982C35.0967 19.3048 34.51 19.1032 33.8867 18.9748C33.2084 18.8282 32.53 18.7365 31.8334 18.7365C31.4667 18.7182 31.0817 18.7732 30.7334 18.8648C30.495 18.9198 30.2934 19.0482 30.165 19.2315C30.0734 19.3782 30.0184 19.5615 30.0184 19.7265C30.0184 19.8915 30.0917 20.0565 30.2017 20.2032C30.3667 20.4048 30.5867 20.5698 30.825 20.6982C31.2467 20.9182 31.6867 21.1198 32.1267 21.3032C33.1167 21.6332 34.07 22.0915 34.95 22.6415C35.555 23.0265 36.05 23.5398 36.3984 24.1632C36.6917 24.7498 36.8384 25.3915 36.82 26.0515C36.8384 26.9132 36.5817 27.7748 36.105 28.4898C35.5917 29.2232 34.8767 29.7915 34.0517 30.1215C33.1534 30.5065 32.0534 30.7082 30.7334 30.7082C29.89 30.7082 29.065 30.6348 28.24 30.4698C27.5984 30.3598 26.9567 30.1582 26.37 29.8832C26.2417 29.8098 26.15 29.6815 26.1684 29.5348V26.3448C26.1684 26.2898 26.1867 26.2165 26.2417 26.1798C26.2967 26.1432 26.3517 26.1615 26.4067 26.1982C27.1217 26.6198 27.8734 26.9132 28.68 27.0965C29.3767 27.2798 30.11 27.3715 30.8434 27.3715C31.54 27.3715 32.035 27.2798 32.365 27.1148C32.6584 26.9865 32.86 26.6748 32.86 26.3448C32.86 26.0882 32.7133 25.8498 32.42 25.6115C32.1267 25.3732 31.5217 25.0982 30.6234 24.7498C29.6884 24.4198 28.8267 23.9798 28.02 23.4298C27.4517 23.0265 26.975 22.4948 26.6267 21.8715C26.3334 21.2848 26.1867 20.6432 26.205 20.0015C26.205 19.2132 26.425 18.4615 26.8283 17.7832C27.2867 17.0498 27.965 16.4632 28.7534 16.0965C29.615 15.6565 30.6967 15.4548 31.9984 15.4548C32.75 15.4548 33.52 15.5098 34.2717 15.6198C34.8217 15.6932 35.3534 15.8398 35.8484 16.0415C35.9217 16.0598 35.995 16.1332 36.0317 16.2065C36.05 16.2798 36.0684 16.3532 36.0684 16.4265V19.4148C36.0684 19.4882 36.0317 19.5615 35.9767 19.5982C35.8117 19.6348 35.72 19.6348 35.6467 19.5982Z" fill="url(#paint2_linear_62_47)"/>
<defs>
<linearGradient id="paint0_linear_62_47" x1="22.4453" y1="0" x2="22.4453" y2="42.9" gradientUnits="userSpaceOnUse">
<stop stop-color="#FDFDFD"/>
<stop offset="1" stop-color="white" stop-opacity="0.18"/>
</linearGradient>
<linearGradient id="paint1_linear_62_47" x1="17.2757" y1="10.9082" x2="17.2757" y2="30.3232" gradientUnits="userSpaceOnUse">
<stop/>
<stop offset="1" stop-color="#616161"/>
</linearGradient>
<linearGradient id="paint2_linear_62_47" x1="31.4938" y1="15.4548" x2="31.4938" y2="30.7082" gradientUnits="userSpaceOnUse">
<stop/>
<stop offset="1" stop-color="#616161"/>
</linearGradient>
</defs>
</svg>
