<svg width="44" height="42" viewBox="0 0 44 42" fill="none" xmlns="http://www.w3.org/2000/svg">
<path d="M8.51883 0H36.3393C40.5573 0 43.9675 3.41026 43.9675 7.62821V34.3718C43.9675 38.5897 40.5573 42 36.3393 42H8.51883C4.30088 42 0.890625 38.5897 0.890625 34.3718V7.62821C0.890625 3.41026 4.30088 0 8.51883 0Z" fill="url(#paint0_linear_62_26)"/>
<path d="M11.1211 29.4356V10.9484C11.1211 10.8228 11.1749 10.751 11.3006 10.751C11.6057 10.751 11.8929 10.751 12.3057 10.7331C12.7365 10.7151 13.1852 10.7151 13.6698 10.6972C14.1544 10.6792 14.6749 10.6792 15.2314 10.6613C15.7878 10.6433 16.3262 10.6433 16.8647 10.6433C18.3365 10.6433 19.557 10.8228 20.5621 11.1997C21.4596 11.5048 22.2852 12.0074 22.9672 12.6715C23.5416 13.2459 23.9903 13.9459 24.2775 14.7177C24.5467 15.4715 24.6903 16.2433 24.6903 17.051C24.6903 18.5946 24.3314 19.869 23.6134 20.8741C22.8955 21.8792 21.8903 22.6331 20.7237 23.0638C19.5031 23.5125 18.157 23.6741 16.6852 23.6741C16.2544 23.6741 15.9672 23.6741 15.7878 23.6561C15.6083 23.6382 15.357 23.6382 15.016 23.6382V29.3997C15.0339 29.5254 14.9442 29.6331 14.8185 29.651H14.7467H11.3365C11.1929 29.651 11.1211 29.5792 11.1211 29.4177V29.4356ZM15.0339 14.2331V20.2638C15.2852 20.2818 15.5185 20.2997 15.7339 20.2997H16.6852C17.3852 20.2997 18.0852 20.192 18.7493 19.9766C19.3237 19.8151 19.8262 19.4741 20.2211 19.0254C20.598 18.5766 20.7775 17.9664 20.7775 17.1766C20.7955 16.6202 20.6519 16.0638 20.3647 15.5792C20.0596 15.1125 19.6288 14.7536 19.1083 14.5561C18.4442 14.2869 17.7262 14.1792 16.9903 14.1972C16.5237 14.1972 16.1108 14.1972 15.7698 14.2151C15.4108 14.1972 15.1596 14.2151 15.0339 14.2331Z" fill="url(#paint1_linear_62_26)"/>
<path d="M27.2747 15.292H30.4157C30.5952 15.292 30.7388 15.4177 30.7927 15.5792C30.8465 15.7228 30.8824 15.8664 30.9004 16.0279C30.9363 16.2074 30.9722 16.4049 30.9901 16.5843C31.0081 16.7818 31.026 16.9972 31.026 17.2305C31.5645 16.6023 32.2106 16.0818 32.9465 15.6869C33.7722 15.2202 34.7234 14.9869 35.6747 14.9869C35.8004 14.969 35.9081 15.0587 35.926 15.1843V15.2561V18.7561C35.926 18.8997 35.8363 18.9536 35.6388 18.9536C34.9927 18.9356 34.3286 18.9895 33.7004 19.1331C33.1799 19.2408 32.6773 19.4023 32.1927 19.6177C31.8516 19.7792 31.5286 19.9946 31.2773 20.2818V29.4356C31.2773 29.6151 31.2055 29.6869 31.044 29.6869H27.5081C27.3645 29.7049 27.2388 29.6151 27.2209 29.4715V29.3997V19.4561C27.2209 19.0254 27.2209 18.5766 27.2029 18.11C27.185 17.6433 27.185 17.1766 27.167 16.71C27.167 16.2972 27.1311 15.9023 27.0952 15.4895C27.0773 15.3997 27.1311 15.31 27.2209 15.292C27.2209 15.2741 27.2568 15.2741 27.2747 15.292Z" fill="url(#paint2_linear_62_26)"/>
<defs>
<linearGradient id="paint0_linear_62_26" x1="22.4291" y1="0" x2="22.4291" y2="42" gradientUnits="userSpaceOnUse">
<stop stop-color="#FDFDFD"/>
<stop offset="1" stop-color="white" stop-opacity="0.18"/>
</linearGradient>
<linearGradient id="paint1_linear_62_26" x1="17.9057" y1="10.6433" x2="17.9057" y2="29.651" gradientUnits="userSpaceOnUse">
<stop/>
<stop offset="1" stop-color="#616161"/>
</linearGradient>
<linearGradient id="paint2_linear_62_26" x1="31.5089" y1="14.9846" x2="31.5089" y2="29.6892" gradientUnits="userSpaceOnUse">
<stop/>
<stop offset="1" stop-color="#616161"/>
</linearGradient>
</defs>
</svg>
