<svg width="51" height="42" viewBox="0 0 51 42" fill="none" xmlns="http://www.w3.org/2000/svg">
<path d="M35.2712 29.3058C33.6482 22.9651 30.8379 16.8821 26.7919 11.9193C25.0522 9.78581 23.1703 8.01674 21.1464 6.61237C20.6379 6.2599 20.9221 5.39466 21.5435 5.3974C21.7023 5.3974 21.8751 5.43971 22.0618 5.52422C31.2043 9.64831 37.7945 17.5202 41.5757 26.7213C41.9949 27.7413 42.3646 28.7809 42.6835 29.8366C42.8827 30.4928 42.271 31.0878 41.6594 30.699C40.085 29.7001 37.9881 29.6262 36.0194 29.8742C35.6516 29.9202 35.3576 29.6458 35.2712 29.3058ZM36.4653 40.1439C37.3291 40.7919 38.1317 40.7292 38.9523 40.1287C39.8765 39.4514 40.8285 38.7558 41.8084 38.0415C42.6513 37.4271 43.6559 37.2097 44.6786 37.487C45.0789 37.5966 45.5424 37.8465 46.069 38.2366C46.9873 38.9188 47.911 39.5936 48.8402 40.261C49.1402 40.4755 49.462 40.5851 49.8057 40.5898C50.245 40.5963 50.4931 40.8173 50.5498 41.2529C50.5611 41.3321 50.5515 41.4128 50.5219 41.4871C50.3955 41.8121 50.1583 41.9751 49.8099 41.9761C49.1858 41.9789 48.6168 41.8015 48.1032 41.4439C47.1086 40.7502 46.1275 40.0371 45.1606 39.3052C44.3901 38.7242 43.543 38.5236 42.7265 39.1144C41.7027 39.854 40.6801 40.5952 39.6587 41.338C38.7911 41.9686 37.8492 42.1475 36.8331 41.8743C36.4032 41.7583 35.9284 41.5051 35.4092 41.115C34.4553 40.399 33.5529 39.7413 32.702 39.1423C31.9665 38.623 31.2238 38.6263 30.4743 39.152C29.6523 39.7288 28.7899 40.3571 27.887 41.037C27.3 41.4792 26.7928 41.7583 26.3655 41.8743C25.3559 42.1502 24.4112 41.9719 23.5317 41.3393C22.5896 40.6621 21.6528 39.9775 20.7214 39.2857C19.756 38.5695 19.0064 38.6029 18.0561 39.2941C17.1066 39.9851 16.1578 40.6771 15.2097 41.37C14.3803 41.9757 13.4495 42.1424 12.4177 41.8702C11.9885 41.7569 11.5148 41.5047 10.9965 41.1136C10.1002 40.4374 9.14023 39.7403 8.11662 39.0224C7.53568 38.6141 6.66201 38.713 6.11172 39.1144C5.04716 39.8905 3.97853 40.6609 2.90586 41.4258C2.37271 41.8057 1.75043 41.9868 1.03885 41.9691C0.7519 41.9627 0.549863 41.7842 0.432832 41.4341C0.414228 41.379 0.408041 41.3205 0.414714 41.2627C0.458392 40.8317 0.696568 40.6065 1.12944 40.587C1.53351 40.5694 1.87442 40.4593 2.15216 40.2569C3.19613 39.4961 4.21602 38.7553 5.21171 38.0345C5.23678 38.0159 5.24187 37.9927 5.22699 37.9649C4.77533 37.1608 4.31928 36.3592 3.85885 35.5601C3.56348 35.0501 3.82409 34.4873 4.4301 34.4483C18.4117 33.5728 32.393 32.6937 46.3741 31.8108C46.556 31.7988 46.7384 31.7979 46.9204 31.8081C47.3467 31.8318 47.6002 32.3138 47.4817 32.7012C47.4428 32.8303 47.3267 32.9816 47.1335 33.1554C44.0182 35.9573 40.3468 38.1725 36.4764 40.0255C36.4085 40.0589 36.4049 40.0985 36.4653 40.1439ZM31.3325 30.7784C27.9367 29.4475 24.3551 28.793 20.5877 28.8153C16.1404 28.8419 11.8603 30.1236 8.22807 32.5144C7.50503 32.9896 6.73174 32.0825 7.27929 31.4904C7.58856 31.1552 7.86582 30.8123 8.11104 30.4622C10.3068 27.3236 11.6058 23.7843 12.008 19.8442C12.6894 13.1607 10.5437 6.78933 7.25559 0.982247C7.12044 0.743974 7.25138 0.295339 7.49386 0.13649C7.74741 -0.0297035 8.00615 -0.0441977 8.26989 0.0933994C13.4129 2.78325 18.0046 6.10889 22.0451 10.0705C27.6432 15.5585 31.7756 22.302 32.7439 30.1418C32.8015 30.6053 32.6204 30.8867 32.2006 30.986C31.9302 31.0502 31.6111 30.8871 31.3325 30.7784Z" fill="url(#paint0_linear_120_60)"/>
<path d="M12.3669 9.33737C14.355 16.1992 13.8535 23.511 10.2756 29.7013C10.2732 29.7053 10.2721 29.7099 10.2726 29.7145C10.2731 29.7191 10.2751 29.7234 10.2783 29.7267C10.2815 29.7301 10.2857 29.7322 10.2902 29.7329C10.2948 29.7336 10.2995 29.7328 10.3035 29.7305C13.5739 28.2137 17.0255 27.4442 20.6581 27.4219C24.2472 27.3996 27.7434 27.9941 31.1467 29.2053C31.1535 29.2078 31.1609 29.2085 31.1681 29.2072C31.1754 29.206 31.1821 29.2029 31.1877 29.1982C31.1934 29.1935 31.1977 29.1875 31.2003 29.1806C31.2028 29.1738 31.2036 29.1664 31.2024 29.1592C29.837 20.5602 24.1329 13.3235 17.5693 7.9232C15.1376 5.92163 12.5298 4.10985 9.74616 2.48817C9.65606 2.43518 9.6352 2.45555 9.68349 2.54947C10.7721 4.65887 11.6665 6.92143 12.3669 9.33737Z" fill="url(#paint1_linear_120_60)"/>
<path d="M18.291 27.5449C19.0775 27.4676 19.8671 27.4266 20.6574 27.4221C21.573 27.4165 22.4826 27.4509 23.386 27.5256L29.5141 23.205C29.1379 22.2902 28.7171 21.3944 28.2532 20.5208L18.291 27.5449Z" fill="url(#paint2_linear_120_60)"/>
<path d="M13.3359 14.1252C13.4623 15.2088 13.5245 16.2989 13.522 17.3898L21.64 11.6482C20.9838 10.9783 20.3087 10.3271 19.6156 9.69556L13.3359 14.1252Z" fill="url(#paint3_linear_120_60)"/>
<path d="M13.5215 17.3855C13.5189 18.5824 13.4341 19.7776 13.2676 20.9629L23.5319 13.7034C22.9245 13.0012 22.2955 12.3179 21.6459 11.6545L13.5215 17.3855Z" fill="url(#paint4_linear_120_60)"/>
<path d="M13.2702 20.9376C13.078 22.3083 12.774 23.662 12.3535 24.9865L25.2673 15.8532C24.7122 15.1164 24.1323 14.3987 23.5287 13.7012L13.2702 20.9376Z" fill="url(#paint5_linear_120_60)"/>
<path d="M12.3609 24.9654C11.8396 26.6152 11.14 28.2033 10.2746 29.7015C10.2722 29.7055 10.2711 29.7101 10.2716 29.7147C10.2721 29.7193 10.2741 29.7236 10.2773 29.7269C10.2805 29.7303 10.2847 29.7325 10.2892 29.7331C10.2938 29.7338 10.2985 29.733 10.3025 29.7307C10.3741 29.6975 10.4457 29.6648 10.5174 29.6324L26.847 18.1193C26.3501 17.3462 25.8247 16.5919 25.2717 15.8579L12.3609 24.9654Z" fill="url(#paint6_linear_120_60)"/>
<path d="M10.4785 29.6502C12.9775 28.5139 15.5818 27.812 18.2914 27.5447L28.2539 20.5207C27.8185 19.701 27.3495 18.8996 26.8482 18.1184L10.4785 29.6502Z" fill="url(#paint7_linear_120_60)"/>
<path d="M5.63278 35.8082C5.63045 35.8089 5.62832 35.8101 5.62652 35.8118C5.62472 35.8134 5.6233 35.8154 5.62237 35.8177C5.62143 35.8199 5.621 35.8224 5.62111 35.8248C5.62122 35.8272 5.62186 35.8296 5.62299 35.8318L6.49793 37.3603C6.5099 37.3811 6.52794 37.3977 6.54961 37.4078C6.57129 37.418 6.59556 37.4213 6.61917 37.4173C7.49597 37.2696 8.28404 37.4383 8.98349 37.9232C9.90955 38.5641 10.889 39.2742 11.9219 40.0534C12.6979 40.6387 13.5117 40.8448 14.3365 40.261C15.1436 39.6898 16.1012 38.9937 17.2093 38.1726C18.2096 37.4313 19.2045 37.1666 20.4055 37.5261C20.75 37.6292 21.2251 37.9078 21.8307 38.362C22.6495 38.9743 23.4753 39.5772 24.308 40.1705C25.2052 40.81 25.9799 40.7153 26.8437 40.0633C27.8088 39.3334 28.788 38.6222 29.7807 37.9301C31.0208 37.0649 32.5268 37.2405 33.7236 38.1405C34.148 38.4604 34.5771 38.774 35.011 39.0809C35.052 39.1107 35.1072 39.1165 35.1549 39.0952C38.5997 37.5215 41.7585 35.6383 44.6314 33.4452C44.7531 33.3523 44.7378 33.3111 44.5855 33.3212C31.6235 34.1377 18.7553 34.9471 5.98103 35.7497C5.86328 35.7574 5.7466 35.777 5.63278 35.8082ZM36.5491 28.424C37.9563 28.2846 39.4374 28.3766 40.8042 28.7792C40.811 28.781 40.8182 28.781 40.825 28.779C40.8318 28.7771 40.838 28.7733 40.8428 28.7682C40.8477 28.763 40.851 28.7567 40.8526 28.7498C40.8541 28.7428 40.8537 28.7356 40.8515 28.7289C38.1249 21.3294 33.4686 14.6056 27.0722 10.005C26.9561 9.92231 26.9449 9.93494 27.0388 10.0427C31.5836 15.2646 34.6807 21.6514 36.4627 28.364C36.4748 28.4087 36.5036 28.4286 36.5491 28.424Z" fill="url(#paint8_linear_120_60)"/>
<defs>
<linearGradient id="paint0_linear_120_60" x1="25.4833" y1="0" x2="25.4833" y2="42" gradientUnits="userSpaceOnUse">
<stop stop-color="#FDFDFD"/>
<stop offset="1" stop-color="white" stop-opacity="0.18"/>
</linearGradient>
<linearGradient id="paint1_linear_120_60" x1="20.4306" y1="2.45947" x2="20.4306" y2="29.7332" gradientUnits="userSpaceOnUse">
<stop stop-color="#FDFDFD"/>
<stop offset="1" stop-color="white" stop-opacity="0.18"/>
</linearGradient>
<linearGradient id="paint2_linear_120_60" x1="23.9026" y1="20.5208" x2="23.9026" y2="27.5449" gradientUnits="userSpaceOnUse">
<stop stop-color="#FDFDFD"/>
<stop offset="1" stop-color="white" stop-opacity="0.18"/>
</linearGradient>
<linearGradient id="paint3_linear_120_60" x1="17.488" y1="9.69556" x2="17.488" y2="17.3898" gradientUnits="userSpaceOnUse">
<stop stop-color="#FDFDFD"/>
<stop offset="1" stop-color="white" stop-opacity="0.18"/>
</linearGradient>
<linearGradient id="paint4_linear_120_60" x1="18.3998" y1="11.6545" x2="18.3998" y2="20.9629" gradientUnits="userSpaceOnUse">
<stop stop-color="#FDFDFD"/>
<stop offset="1" stop-color="white" stop-opacity="0.18"/>
</linearGradient>
<linearGradient id="paint5_linear_120_60" x1="18.8104" y1="13.7012" x2="18.8104" y2="24.9865" gradientUnits="userSpaceOnUse">
<stop stop-color="#FDFDFD"/>
<stop offset="1" stop-color="white" stop-opacity="0.18"/>
</linearGradient>
<linearGradient id="paint6_linear_120_60" x1="18.5592" y1="15.8579" x2="18.5592" y2="29.7334" gradientUnits="userSpaceOnUse">
<stop stop-color="#FDFDFD"/>
<stop offset="1" stop-color="white" stop-opacity="0.18"/>
</linearGradient>
<linearGradient id="paint7_linear_120_60" x1="19.3662" y1="18.1184" x2="19.3662" y2="29.6502" gradientUnits="userSpaceOnUse">
<stop stop-color="#FDFDFD"/>
<stop offset="1" stop-color="white" stop-opacity="0.18"/>
</linearGradient>
<linearGradient id="paint8_linear_120_60" x1="25.1668" y1="9.95117" x2="25.1668" y2="40.6091" gradientUnits="userSpaceOnUse">
<stop stop-color="#FDFDFD"/>
<stop offset="1" stop-color="white" stop-opacity="0.18"/>
</linearGradient>
</defs>
</svg>
