<svg width="44" height="42" viewBox="0 0 44 42" fill="none" xmlns="http://www.w3.org/2000/svg">
<path d="M7.79167 0H36.2083C40.5167 0 44 3.41026 44 7.62821V34.3718C44 38.5897 40.5167 42 36.2083 42H7.79167C3.48333 42 0 38.5897 0 34.3718V7.62821C0 3.41026 3.48333 0 7.79167 0Z" fill="url(#paint0_linear_62_87)"/>
<path d="M23.1373 11.0383L17.6373 19.9229L23.504 29.346C23.5407 29.4178 23.559 29.4896 23.5407 29.5613C23.5223 29.6331 23.449 29.5793 23.339 29.5972H19.1407C18.8473 29.5972 18.6457 29.5793 18.5173 29.3998C18.1323 28.646 17.729 27.9101 17.344 27.1562C16.959 26.4203 16.5373 25.6665 16.0973 24.8947C15.6573 24.1229 15.2173 23.3511 14.7773 22.5614H14.7407C14.3557 23.3331 13.934 24.1049 13.5123 24.8767C13.0907 25.6485 12.669 26.4203 12.2657 27.1742C11.844 27.928 11.4223 28.6998 11.0007 29.4357C10.9273 29.6152 10.7807 29.6331 10.579 29.6331H6.54568C6.47235 29.6331 6.41735 29.669 6.41735 29.5793C6.39902 29.5075 6.41735 29.4357 6.45402 29.3819L12.1557 20.228L6.60068 11.0203C6.54568 10.9485 6.52735 10.8767 6.56402 10.8408C6.60068 10.787 6.67401 10.769 6.74735 10.769H10.909C11.0007 10.769 11.0923 10.787 11.1657 10.8049C11.239 10.8408 11.294 10.8947 11.349 10.9665C11.6973 11.7383 12.1007 12.5101 12.5223 13.2819C12.9623 14.0537 13.384 14.8075 13.8423 15.5614C14.2823 16.3152 14.6857 17.069 15.0707 17.8408H15.1073C15.4923 17.0511 15.8957 16.2793 16.299 15.5255C16.7023 14.7716 17.124 14.0178 17.5457 13.2639C17.9673 12.5101 18.3707 11.7383 18.774 11.0024C18.7923 10.9306 18.829 10.8588 18.884 10.8229C18.9573 10.787 19.0307 10.769 19.1223 10.787H22.9907C23.0823 10.769 23.174 10.8229 23.1923 10.9126C23.2107 10.9306 23.174 11.0024 23.1373 11.0383Z" fill="url(#paint1_linear_62_87)"/>
<path d="M31.6077 29.9743C30.251 29.9922 28.8944 29.723 27.666 29.1666C26.511 28.6461 25.5577 27.7845 24.8977 26.7256C24.2194 25.6307 23.8894 24.2666 23.8894 22.6333C23.871 21.3051 24.2194 19.9948 24.8977 18.8461C25.5944 17.6794 26.6027 16.7102 27.8127 16.064C29.096 15.364 30.636 15.023 32.451 15.023C32.5427 15.023 32.671 15.023 32.836 15.041C33.001 15.0589 33.1844 15.0589 33.4044 15.0769V9.40506C33.4044 9.27942 33.4594 9.20762 33.5877 9.20762H37.3094C37.401 9.18967 37.4744 9.26147 37.4927 9.33326C37.4927 9.35121 37.4927 9.36916 37.4927 9.36916V26.4563C37.4927 26.7794 37.511 27.1384 37.5294 27.5333C37.566 27.9102 37.5844 28.2692 37.6027 28.5743C37.6027 28.6999 37.5477 28.8076 37.4194 28.8615C36.466 29.2563 35.4577 29.5435 34.431 29.723C33.496 29.8845 32.561 29.9743 31.6077 29.9743ZM33.4044 26.3845V18.4871C33.2394 18.4512 33.0744 18.4153 32.9094 18.3974C32.7077 18.3794 32.506 18.3615 32.3044 18.3615C31.5894 18.3615 30.8744 18.5051 30.2327 18.8281C29.6094 19.1333 29.0777 19.582 28.6744 20.1563C28.271 20.7307 28.0694 21.5025 28.0694 22.4358C28.051 23.064 28.161 23.6922 28.381 24.2845C28.5644 24.7692 28.8394 25.1999 29.206 25.5589C29.5544 25.882 29.976 26.1333 30.4527 26.2769C30.9477 26.4384 31.461 26.5102 31.9744 26.5102C32.2494 26.5102 32.506 26.4922 32.7444 26.4743C32.9827 26.4922 33.1844 26.4563 33.4044 26.3845Z" fill="url(#paint2_linear_62_87)"/>
<defs>
<linearGradient id="paint0_linear_62_87" x1="22" y1="0" x2="22" y2="42" gradientUnits="userSpaceOnUse">
<stop stop-color="#FDFDFD"/>
<stop offset="1" stop-color="white" stop-opacity="0.18"/>
</linearGradient>
<linearGradient id="paint1_linear_62_87" x1="14.979" y1="10.769" x2="14.979" y2="29.6402" gradientUnits="userSpaceOnUse">
<stop/>
<stop offset="1" stop-color="#616161"/>
</linearGradient>
<linearGradient id="paint2_linear_62_87" x1="30.7457" y1="9.20483" x2="30.7457" y2="29.9751" gradientUnits="userSpaceOnUse">
<stop/>
<stop offset="1" stop-color="#616161"/>
</linearGradient>
</defs>
</svg>
