<svg xmlns="http://www.w3.org/2000/svg" width="20" height="20" viewBox="0 0 20 20" fill="none">
  <path fill-rule="evenodd" clip-rule="evenodd" d="M1.43078 0C0.640828 0 0 0.621317 0 1.38677V17.9731C0 18.7386 0.640903 19.3594 1.43078 19.3594H17.9287C18.7189 19.3594 19.3594 18.7386 19.3594 17.9729V1.38677C19.3594 0.621317 18.7189 0 17.9287 0H1.43078ZM5.88299 7.48567V16.2013H2.98603V7.48567H5.88299ZM6.07394 4.79024C6.07394 5.62663 5.44513 6.29589 4.43512 6.29589L4.41613 6.29582C3.44385 6.29582 2.81528 5.62655 2.81528 4.79017C2.81528 3.9348 3.46283 3.28421 4.45432 3.28421C5.44513 3.28421 6.05503 3.9348 6.07394 4.79024ZM10.3832 16.2013H7.4865C7.4865 16.2013 7.52446 8.3036 7.48665 7.48597H10.3835V8.71964C10.7685 8.12589 11.4577 7.28133 12.9943 7.28133C14.9003 7.28133 16.3292 8.52707 16.3292 11.204V16.2013H13.4326V11.5392C13.4326 10.3674 13.0131 9.56824 11.9651 9.56824C11.1646 9.56824 10.688 10.1072 10.4787 10.6279C10.4021 10.8137 10.3832 11.0745 10.3832 11.3346V16.2013Z" fill="white"/>
</svg>