<svg xmlns="http://www.w3.org/2000/svg" width="34" height="34" viewBox="0 0 34 34" fill="none">
  <path d="M0 6C0 2.68629 2.68629 0 6 0H28C31.3137 0 34 2.68629 34 6V28C34 31.3137 31.3137 34 28 34H6C2.68629 34 0 31.3137 0 28V6Z" fill="white"/>
  <path d="M19.7711 21.2L17.5089 18.0503L15.2293 21.2H13.4021L16.604 16.7973L13.4891 12.5339H15.3163L17.5089 15.5792L19.6841 12.5339H21.5113L18.4138 16.8321L21.5983 21.2H19.7711Z" fill="black"/>
  <path d="M9 8H12.8151V9.47588H10.5839V23.5241H12.8151V25H9V8Z" fill="black"/>
  <path d="M22.1849 25V23.5241H24.399V9.47588H22.1849V8H26V25H22.1849Z" fill="black"/>
</svg>