<svg width="21" height="16" viewBox="0 0 21 16" fill="none" xmlns="http://www.w3.org/2000/svg">
<path d="M8.65625 11.4628L13.8462 8.24854L8.65625 5.03425V11.4628ZM20.2162 3.07354C20.3462 3.57711 20.4363 4.25211 20.4963 5.10925C20.5662 5.96639 20.5963 6.70568 20.5963 7.34853L20.6562 8.24854C20.6562 10.595 20.4963 12.32 20.2162 13.4235C19.9662 14.3878 19.3862 15.0092 18.4862 15.2771C18.0163 15.4164 17.1562 15.5128 15.8363 15.5771C14.5363 15.6521 13.3463 15.6842 12.2463 15.6842L10.6562 15.7485C6.46625 15.7485 3.85625 15.5771 2.82625 15.2771C1.92625 15.0092 1.34625 14.3878 1.09625 13.4235C0.96625 12.92 0.87625 12.245 0.81625 11.3878C0.74625 10.5307 0.71625 9.79139 0.71625 9.14853L0.65625 8.24854C0.65625 5.90211 0.81625 4.17711 1.09625 3.07354C1.34625 2.10925 1.92625 1.48782 2.82625 1.21996C3.29625 1.08068 4.15625 0.984249 5.47625 0.919964C6.77625 0.844964 7.96625 0.812821 9.06625 0.812821L10.6562 0.748535C14.8463 0.748535 17.4562 0.919964 18.4862 1.21996C19.3862 1.48782 19.9662 2.10925 20.2162 3.07354Z" fill="white"/>
</svg>
